<?xml version="1.0" encoding="UTF-8" standalone="no"?>
<!-- Created with Inkscape (http://www.inkscape.org/) -->

<svg
   width="297mm"
   height="210mm"
   viewBox="0 0 297 210"
   version="1.1"
   id="svg5"
   inkscape:export-filename="cometa2.png"
   inkscape:export-xdpi="96"
   inkscape:export-ydpi="96"
   xml:space="preserve"
   inkscape:version="1.2 (dc2aedaf03, 2022-05-15)"
   sodipodi:docname="iconsite.svg"
   xmlns:inkscape="http://www.inkscape.org/namespaces/inkscape"
   xmlns:sodipodi="http://sodipodi.sourceforge.net/DTD/sodipodi-0.dtd"
   xmlns="http://www.w3.org/2000/svg"
   xmlns:svg="http://www.w3.org/2000/svg"><sodipodi:namedview
     id="namedview7"
     pagecolor="#ff3c3c"
     bordercolor="#858585"
     borderopacity="0.24705882"
     inkscape:showpageshadow="2"
     inkscape:pageopacity="0"
     inkscape:pagecheckerboard="0"
     inkscape:deskcolor="#f1f3af"
     inkscape:document-units="mm"
     showgrid="false"
     inkscape:zoom="0.5"
     inkscape:cx="416"
     inkscape:cy="586"
     inkscape:window-width="1366"
     inkscape:window-height="705"
     inkscape:window-x="-8"
     inkscape:window-y="-8"
     inkscape:window-maximized="1"
     inkscape:current-layer="layer1" /><defs
     id="defs2"><rect
       x="190.49791"
       y="474.73288"
       width="616.85037"
       height="260.04476"
       id="rect762" /></defs><g
     inkscape:label="Camada 1"
     inkscape:groupmode="layer"
     id="layer1"><path
       id="path15472"
       style="fill:#000000;fill-opacity:1;stroke:#000000;stroke-width:1.204;stroke-dasharray:none;stroke-opacity:1"
       d="m 94.77965,98.995496 a 10.201126,10.201126 0 0 1 -0.561504,-0.967556 10.201126,10.201126 0 0 1 -0.485411,-1.131965 10.201126,10.201126 0 0 1 -0.345301,-1.182691 10.201126,10.201126 0 0 1 -0.200425,-1.215226 10.201126,10.201126 0 0 1 -0.05237,-1.230977 10.201126,10.201126 0 0 1 0.09622,-1.228086 10.201126,10.201126 0 0 1 0.243882,-1.207514 10.201126,10.201126 0 0 1 0.387289,-1.169328 10.201126,10.201126 0 0 1 0.525936,-1.114045 10.201126,10.201126 0 0 1 0.655824,-1.042461 10.201126,10.201126 0 0 1 0.776911,-0.956077 l -32.142024,-29.519316 -0.01496,0.01629 -10.20582,-9.37305 C 53.22142,47.417462 52.96668,47.162241 52.693986,46.911791 l -6.885429,-6.32358 -3.788389,-3.479263 -0.15375,-0.141205 c -2.336808,-2.146133 -4.806558,-3.233095 -5.537409,-2.43732 -0.730846,0.795783 0.562153,3.164058 2.898961,5.310191 l 0.331051,0.304037 6.708115,6.160748 2.017918,1.85326 -1.13725,1.238295 -3.780627,-3.472133 c -2.072756,-1.903631 -4.32977,-2.795217 -5.060623,-1.999435 -0.730845,0.795783 0.349419,2.968675 2.422175,4.872306 l 3.780626,3.472133 -1.137249,1.238296 -5.114952,-4.697585 c -0.366294,-0.3364 -0.738389,-0.64055 -1.106748,-0.910033 -0.342344,-0.383235 -0.721855,-0.769359 -1.134808,-1.148615 L 35.68454,46.447843 c -2.336808,-2.146126 -4.806557,-3.233094 -5.53741,-2.437313 -0.730845,0.795784 0.562153,3.164058 2.898963,5.310184 l 0.331051,0.304044 c 0.412958,0.379257 0.829678,0.724862 1.240593,1.033427 0.299788,0.34416 0.634674,0.688822 1.000969,1.025223 l 5.114945,4.69758 -1.137486,1.238553 -5.114945,-4.697579 c -2.072764,-1.903625 -4.3298,-2.795714 -5.060653,-1.999931 -0.730845,0.795782 0.349677,2.968917 2.422435,4.872542 l 5.114951,4.697576 -1.137493,1.238552 -5.114945,-4.697575 -4.383719,-4.026019 c -2.072763,-1.903632 -4.32954,-2.795477 -5.060386,-1.999695 -0.730853,0.795783 0.349411,2.968674 2.422167,4.872306 l 6.885422,6.323574 2.613249,2.400019 -1.137486,1.238546 -6.818638,-6.262238 c -2.072763,-1.903625 -4.329792,-2.795714 -5.060645,-1.999931 -0.730845,0.795777 0.349671,2.968907 2.422433,4.872539 l 6.885416,6.323583 12.703376,11.66681 -0.01497,0.01632 32.142036,29.51932 a 10.201126,10.201126 0 0 1 0.886655,-0.85529 10.201126,10.201126 0 0 1 0.983246,-0.74224 10.201126,10.201126 0 0 1 1.065126,-0.61838 10.201126,10.201126 0 0 1 1.132455,-0.48543 10.201126,10.201126 0 0 1 1.182195,-0.34529 10.201126,10.201126 0 0 1 1.215722,-0.20044 10.201126,10.201126 0 0 1 1.230739,-0.0521 10.201126,10.201126 0 0 1 1.228086,0.0962 10.201126,10.201126 0 0 1 1.207514,0.24388 10.201126,10.201126 0 0 1 1.169328,0.38728 10.201126,10.201126 0 0 1 1.011741,0.47731 z M 36.936789,42.667388 c 0.730846,-0.795783 -0.131342,-2.768879 -1.933242,-4.423747 -1.8019,-1.654875 -3.840829,-2.346169 -4.571674,-1.550386 -0.730846,0.795782 0.131319,2.768382 1.933218,4.423257 1.801901,1.654867 3.840853,2.346658 4.571698,1.550876 z m -8.61213,7.248151 c 0.730852,-0.795783 0.341526,-2.334136 -0.872758,-3.449314 -1.21425,-1.115174 -2.779858,-1.372247 -3.510703,-0.576464 -0.730845,0.795782 -0.341772,2.3339 0.872491,3.449076 1.214257,1.115175 2.780124,1.372484 3.51097,0.576702 z m -10.481995,5.530874 c 0.730852,-0.795783 0.198122,-2.465828 -1.194491,-3.744803 -1.392619,-1.27899 -3.102123,-1.668217 -3.832969,-0.872435 -0.730846,0.795783 -0.197868,2.466055 1.194757,3.745049 1.392613,1.278976 3.101857,1.667972 3.832703,0.872189 z M 27.167383,41.27392 c 0.730846,-0.795783 -0.313166,-2.935862 -2.341177,-4.798401 -2.02802,-1.862533 -4.249285,-2.721284 -4.98013,-1.925501 -0.730846,0.795783 0.313662,2.935839 2.341674,4.798371 2.028018,1.86254 4.248781,2.721313 4.979633,1.925531 z m 7.040187,-8.691825 c 0.730852,-0.795782 0.341763,-2.334402 -0.872514,-3.449579 -1.214256,-1.115175 -2.78036,-1.372226 -3.511206,-0.576442 -0.730845,0.795782 -0.341526,2.334135 0.872758,3.449313 1.21425,1.115175 2.780116,1.372491 3.510962,0.576708 z M 22.333018,44.412803 c 0.730852,-0.795782 -0.349664,-2.96891 -2.422434,-4.872543 l -1.213961,-1.1149 c -2.072763,-1.903631 -4.329793,-2.795719 -5.060645,-1.999937 -0.730845,0.795783 0.34967,2.968917 2.422433,4.872549 l 1.213961,1.1149 c 2.072763,1.903632 4.3298,2.795713 5.060646,1.999931 z" /><path
       id="path15467-3"
       style="fill:#cbffff;fill-opacity:1;stroke-width:0.228602;stroke-dasharray:none"
       d="m 90.128705,96.741034 a 7.6711701,7.6711701 0 0 1 -0.422198,-0.72749 7.6711701,7.6711701 0 0 1 -0.365023,-0.851046 7.6711701,7.6711701 0 0 1 -0.259687,-0.889355 7.6711701,7.6711701 0 0 1 -0.1508,-0.913884 7.6711701,7.6711701 0 0 1 -0.0391,-0.925848 7.6711701,7.6711701 0 0 1 0.07216,-0.923365 7.6711701,7.6711701 0 0 1 0.183498,-0.907961 7.6711701,7.6711701 0 0 1 0.291419,-0.87946 7.6711701,7.6711701 0 0 1 0.395402,-0.83788 7.6711701,7.6711701 0 0 1 0.493225,-0.783828 7.6711701,7.6711701 0 0 1 0.584014,-0.719051 L 76.112106,73.790002 C 75.951486,73.623145 75.783215,73.457887 75.6063,73.295397 l -6.353508,-5.835065 -3.6481,-3.350431 c -0.01959,-0.01795 -0.03938,-0.03489 -0.05896,-0.05277 -0.0219,-0.02027 -0.04298,-0.04087 -0.06502,-0.06114 l -0.0068,-0.0061 c -2.33681,-2.146156 -4.901134,-3.13015 -5.749457,-2.206452 -0.848322,0.923699 0.350101,3.394942 2.686916,5.541075 l 0.0065,0.0061 c 0.02203,0.02027 0.04413,0.03978 0.0662,0.05985 0.01935,0.01802 0.03827,0.03611 0.05777,0.054 l 2.71291,2.491537 -1.617443,1.76115 c -1.202036,-0.545312 -2.247681,-0.606049 -2.755208,-0.05345 -0.507527,0.552622 -0.358226,1.589322 0.287202,2.740723 l -1.664991,1.812917 c -0.08135,-0.0593 -0.16283,-0.116028 -0.24409,-0.171685 -0.361473,-0.427917 -0.772085,-0.85748 -1.226227,-1.27457 l -0.0065,-0.0061 c -2.336808,-2.146134 -4.901126,-3.130128 -5.749449,-2.206429 -0.848322,0.923691 0.350102,3.394935 2.68691,5.541068 l 0.0065,0.0061 c 0.454143,0.417096 0.916789,0.789995 1.373854,1.113833 0.06235,0.07624 0.126071,0.152344 0.192025,0.228376 l -1.41562,1.541397 c -1.786461,-1.301228 -3.573879,-1.741638 -4.289959,-0.961939 -0.716074,0.7797 -0.125243,2.523004 1.322981,4.192527 l -0.03301,0.03598 0.418807,0.384637 c 0.159362,0.165347 0.326265,0.329218 0.50164,0.490287 l 6.353507,5.835072 c 0.175399,0.161096 0.352801,0.31344 0.531119,0.458201 L 74.730668,105 a 7.6711701,7.6711701 0 0 1 0.666861,-0.64296 7.6711701,7.6711701 0 0 1 0.739358,-0.55826 7.6711701,7.6711701 0 0 1 0.801033,-0.46487 7.6711701,7.6711701 0 0 1 0.851542,-0.36505 7.6711701,7.6711701 0 0 1 0.889096,-0.25993 7.6711701,7.6711701 0 0 1 0.914144,-0.15056 7.6711701,7.6711701 0 0 1 0.925582,-0.0394 7.6711701,7.6711701 0 0 1 0.923406,0.0726 7.6711701,7.6711701 0 0 1 0.908186,0.18324 7.6711701,7.6711701 0 0 1 0.879208,0.29118 7.6711701,7.6711701 0 0 1 0.760704,0.35889 z M 59.563374,70.432389 c 0.848315,-0.923685 0.134603,-2.950254 -1.600587,-4.543853 -1.735184,-1.5936 -3.815299,-2.132893 -4.663621,-1.209201 -0.848322,0.923698 -0.134108,2.95024 1.601082,4.54384 1.735191,1.5936 3.814803,2.132913 4.663126,1.209214 z m -9.786591,8.605936 c 0.848322,-0.923699 0.590105,-2.53194 -0.579191,-3.605827 -1.169302,-1.073886 -2.793658,-1.194606 -3.64198,-0.270914 -0.848323,0.923698 -0.589868,2.531674 0.579434,3.605567 1.169296,1.07388 2.793414,1.194872 3.641737,0.271174 z m -0.367638,-9.134619 c 0.848322,-0.923692 -0.04082,-3.111378 -1.993765,-4.904953 -1.952929,-1.793576 -4.208209,-2.493754 -5.056532,-1.570056 -0.848322,0.923699 0.04106,3.111119 1.993994,4.904695 1.952929,1.793576 4.20798,2.494012 5.056303,1.570314 z m 8.272619,-9.996347 c 0.848329,-0.923698 0.590105,-2.531933 -0.57919,-3.605819 -1.169296,-1.073886 -2.793652,-1.194607 -3.641975,-0.270908 -0.848329,0.923691 -0.589867,2.531668 0.579435,3.605554 1.169295,1.073884 2.793407,1.194862 3.64173,0.271173 z m -13.674792,13.83195 c 0.848323,-0.923692 -0.137388,-3.20006 -2.210151,-5.103692 l -0.891967,-0.819184 c -2.072757,-1.903619 -4.424604,-2.692479 -5.272927,-1.76878 -0.848329,0.923691 0.137624,3.199801 2.210388,5.103433 l 0.89196,0.819177 c 2.072769,1.903633 4.424368,2.692744 5.272697,1.769046 z" /><g
       aria-label="COMETA 
INGRESSOS"
       transform="matrix(0.44347991,0,0,0.46131954,-47.711048,-114.14531)"
       id="text760"
       style="font-size:85.3333px;line-height:0.9;font-family:'Franklin Gothic Heavy';-inkscape-font-specification:'Franklin Gothic Heavy, ';text-align:center;text-anchor:middle;white-space:pre;shape-inside:url(#rect762);fill:#cbffff;fill-opacity:1;stroke:#000000;stroke-width:4.87275;stroke-dasharray:none;stroke-opacity:1"><path
         id="path971"
         style="fill:#cbffff;fill-opacity:1;stroke:#000000;stroke-width:4.87275;stroke-dasharray:none;stroke-opacity:1"
         d="m 397.90035,399.78856 c -0.72664,0.008 -4.15564,25.08045 -5.95325,36.53043 -6.15346,-4.59572 -13.54145,-10.13943 -13.76742,-9.87893 -0.24452,0.28187 6.23591,9.2833 10.93819,15.8921 -8.33858,1.48349 -44.20854,6.31815 -44.19788,7.07734 0.0113,0.77639 37.63198,4.93252 44.88188,6.1207 -4.67066,7.19331 -11.74548,17.9199 -11.48818,18.18401 0.13798,0.14165 3.03785,-2.30238 6.55452,-5.32874 0.97312,-1.79551 2.11587,-3.48621 3.47128,-5.04532 4.83327,-5.5555 11.52751,-8.33307 20.08306,-8.33307 0.76887,0 1.51243,0.046 2.25359,0.0952 -0.0609,-0.0856 -0.13088,-0.18413 -0.19111,-0.26884 11.10702,-1.78836 41.7829,-5.97591 41.773,-6.6808 -0.009,-0.71413 -31.64678,-4.26875 -42.40806,-5.76336 4.65942,-7.18193 11.98141,-18.27306 11.72007,-18.54135 -0.26222,-0.26918 -10.08575,8.38883 -16.4032,13.8612 -2.00945,-10.53081 -6.50648,-37.92948 -7.26649,-37.92058 z m 12.77579,55.31373 c 4.70243,6.61093 11.27523,15.736 11.02907,16.0198 -0.2569,0.29613 -9.82863,-6.95301 -16.18646,-11.68131 -0.3754,2.29856 -1.01351,6.69569 -1.5393,10.23179 1.23553,-1.12179 2.72228,-1.74861 4.52699,-1.74861 5.30555,0 7.95865,4.94469 7.95865,14.83352 0,6.83327 -0.65323,11.54112 -1.95878,14.12444 -1.27778,2.55556 -3.38869,3.83328 -6.33313,3.83328 -4.04195,0 -6.58535,-2.88481 -7.65685,-8.6008 -0.56422,3.30622 -1.02806,5.6567 -1.23982,5.65919 -0.71629,0.008 -4.74364,-24.28212 -6.88779,-35.89864 -2.50938,2.18272 -5.12142,4.44598 -7.52051,6.51052 -2.47703,4.57053 -3.73695,9.89377 -3.73695,15.99628 0,8.88883 2.51372,15.9859 7.54149,21.2914 5.0555,5.30555 11.58322,7.95893 19.58316,7.95893 7.94444,0 14.43077,-2.72289 19.45849,-8.16728 5.02778,-5.44444 7.54149,-12.6804 7.54149,-21.70811 0,-8.72222 -2.4996,-15.69398 -7.49954,-20.91614 -4.48927,-4.71499 -10.19075,-7.2803 -17.08021,-7.73826 z m -10.15981,37.01211 c 1.02567,-6.01007 2.27434,-14.44692 3.46312,-22.44183 -2.68197,2.43507 -4.05623,7.44644 -4.05623,15.16734 0,2.80547 0.20662,5.21273 0.59311,7.27449 z m -47.42678,-37.10732 c -8.05549,0 -14.33391,2.73651 -18.83391,8.20873 -4.5,5.47216 -6.74912,12.66604 -6.74912,21.58265 0,8.99993 2.37433,16.05601 7.12433,21.16706 4.75,5.11106 10.98707,7.66656 18.70923,7.66656 6.4166,0 11.81861,-1.86085 16.20744,-5.58301 4.41667,-3.72222 7.00007,-9.07004 7.75007,-16.0422 l -15.95808,-0.95777 c -0.55555,6.27778 -3.13896,9.4163 -7.75007,9.4163 -2.58328,0 -4.59736,-1.11145 -6.04181,-3.33368 -1.41667,-2.22222 -2.12425,-6.43013 -2.12425,-12.62451 0,-11.05549 2.75002,-16.58325 8.24996,-16.58325 1.97222,0 3.68037,0.84726 5.12476,2.5417 1.47222,1.69444 2.20815,4.44356 2.20815,8.24906 l 16.29134,-0.87486 c -0.52778,-6.88888 -2.81942,-12.4166 -6.87497,-16.58326 -4.02771,-4.16661 -9.80535,-6.24952 -17.33307,-6.24952 z m 89.5412,0.87486 v 56.87528 h 13.08341 v -40.66729 l 10.91721,40.66729 h 11.08268 l 10.542,-40.66729 v 40.66729 h 16.20861 v -56.87528 h -22.91694 l -7.87475,30.2081 -8.24996,-30.2081 z m 71.75018,0 v 56.87528 h 42.79142 v -13.5834 h -25.66577 v -9.29195 h 20.74959 v -12.62451 h -20.74959 v -8.25018 h 25.66577 v -13.12524 z m 44.7502,0 v 13.62484 h 11.79115 v 43.25044 h 16.54187 v -43.25044 h 11.79232 v -13.62484 z m 54.917,0 -17.5836,56.87528 h 14.16709 l 3.41651,-11.2086 h 15.24961 l 3.20793,11.2086 h 17.79218 l -17.79218,-56.87528 z m 7.58344,16.75016 4.62487,16.50036 h -9.25091 z m -241.18781,59.17502 c -9.02772,0 -15.833,2.90279 -20.41632,8.70834 -4.5555,5.77772 -6.83418,12.91692 -6.83418,21.41686 0,8.74994 2.36133,15.69436 7.08355,20.83325 4.72216,5.11105 10.75017,7.66656 18.08349,7.66656 6.91661,0 12.13904,-2.27764 15.66676,-6.83314 0.83334,1.61106 1.5976,3.59716 2.29205,5.95827 h 8.54127 V 557.68233 H 379.2354 v 12.08346 h 9.41637 c -0.0278,2.22222 -0.79088,3.97142 -2.29088,5.2492 -1.47216,1.27777 -3.26418,1.91664 -5.37529,1.91664 -2.61105,0 -4.8331,-1.04087 -6.66638,-3.1242 -1.83334,-2.11111 -2.74999,-6.45907 -2.74999,-13.04234 0,-10.88883 2.86106,-16.33346 8.58322,-16.33346 4.3611,0 6.95752,2.95859 7.79085,8.87525 l 16.91708,-1.66684 c -1.22222,-6.33327 -3.9025,-11.22222 -8.04138,-14.66661 -4.13888,-3.44444 -9.59747,-5.16631 -16.37524,-5.16631 z m 162.87495,0 c -7.63883,0 -13.50032,1.77771 -17.5836,5.33321 -4.05555,3.55555 -6.0826,8.01398 -6.0826,13.37504 0,4.16666 1.41638,7.79145 4.24966,10.87478 2.83333,3.08333 9.23581,5.58299 19.20796,7.49966 2.61111,0.52772 4.41724,1.1393 5.41724,1.83374 1.02777,0.66667 1.54162,1.61074 1.54162,2.83296 0,2.33328 -2.19477,3.50058 -6.58365,3.50058 -5.63883,0 -9.13895,-2.29238 -10.50006,-6.87571 l -16.2086,2.91697 c 3.24994,11.55549 11.80588,17.33378 25.66693,17.33378 7.58327,0 13.70819,-1.77771 18.3748,-5.33321 4.66666,-3.58333 6.99965,-8.25011 6.99965,-14.00011 0,-3.63883 -0.958,-6.79219 -2.87467,-9.45886 -1.91666,-2.69438 -4.30517,-4.59736 -7.16628,-5.70847 -2.86105,-1.11111 -7.69485,-2.38884 -14.50035,-3.83328 -2.47222,-0.52778 -4.13897,-1.08239 -5.00008,-1.66572 -0.86111,-0.58333 -1.2911,-1.40326 -1.2911,-2.45881 0,-2.36111 1.90301,-3.54204 5.70856,-3.54204 4.58327,0 7.62506,1.90292 9.12506,5.70848 l 14.45724,-4.37433 c -3.72222,-9.3055 -11.37447,-13.95866 -22.95773,-13.95866 z m 51.83375,0 c -7.63883,0 -13.50027,1.77771 -17.5836,5.33321 -4.05555,3.55555 -6.08376,8.01398 -6.08376,13.37504 0,4.16666 1.41633,7.79145 4.24966,10.87478 2.83333,3.08333 9.23696,5.58299 19.20912,7.49966 2.6111,0.52772 4.41608,1.1393 5.41608,1.83374 1.02772,0.66667 1.54162,1.61074 1.54162,2.83296 0,2.33328 -2.19361,3.50058 -6.58249,3.50058 -5.63883,0 -9.13899,-2.29238 -10.50005,-6.87571 l -16.20861,2.91697 c 3.25,11.55549 11.80589,17.33378 25.66693,17.33378 7.58327,0 13.7082,-1.77771 18.3748,-5.33321 4.66666,-3.58333 6.99965,-8.25011 6.99965,-14.00011 0,-3.63883 -0.958,-6.79219 -2.87467,-9.45886 -1.91666,-2.69438 -4.30634,-4.59736 -7.16744,-5.70847 -2.86111,-1.11111 -7.69369,-2.38884 -14.49919,-3.83328 -2.47222,-0.52778 -4.13897,-1.08239 -5.00008,-1.66572 -0.86111,-0.58333 -1.29226,-1.40326 -1.29226,-2.45881 0,-2.36111 1.90305,-3.54204 5.70855,-3.54204 4.58333,0 7.62506,1.90292 9.12506,5.70848 l 14.45841,-4.37433 c -3.72222,-9.3055 -11.37446,-13.95866 -22.95773,-13.95866 z m 55.91562,0 c -8.55549,0 -15.24978,2.77753 -20.08306,8.33308 -4.80555,5.52771 -7.20823,12.5416 -7.20823,21.0416 0,8.88882 2.51372,15.98585 7.54149,21.2914 5.0555,5.3055 11.58317,7.95893 19.58317,7.95893 7.94438,0 14.43076,-2.72285 19.45848,-8.16729 5.02778,-5.44438 7.54149,-12.68039 7.54149,-21.70811 0,-8.72216 -2.49954,-15.69392 -7.49954,-20.91614 -4.97216,-5.22216 -11.41719,-7.83347 -19.3338,-7.83347 z m 54.87505,0 c -7.63888,0 -13.49911,1.77771 -17.58244,5.33321 -4.0555,3.55555 -6.08376,8.01398 -6.08376,13.37504 0,4.16666 1.41633,7.79145 4.24966,10.87478 2.83333,3.08333 9.23697,5.58299 19.20912,7.49966 2.61111,0.52772 4.41608,1.1393 5.41608,1.83374 1.02777,0.66667 1.54162,1.61074 1.54162,2.83296 0,2.33328 -2.19482,3.50058 -6.58365,3.50058 -5.63888,0 -9.13895,-2.29238 -10.50006,-6.87571 l -16.20744,2.91697 c 3.25,11.55549 11.80472,17.33378 25.66577,17.33378 7.58326,0 13.7093,-1.77771 18.37597,-5.33321 4.66661,-3.58333 6.99964,-8.25011 6.99964,-14.00011 0,-3.63883 -0.95805,-6.79219 -2.87466,-9.45886 -1.91667,-2.69438 -4.30634,-4.59736 -7.16745,-5.70847 -2.8611,-1.11111 -7.69364,-2.38884 -14.49919,-3.83328 -2.47216,-0.52778 -4.13897,-1.08239 -5.00008,-1.66572 -0.86111,-0.58333 -1.29226,-1.40326 -1.29226,-2.45881 0,-2.36111 1.90305,-3.54204 5.70855,-3.54204 4.58333,0 7.62507,1.90292 9.12507,5.70848 l 14.4584,-4.37433 c -3.72222,-9.3055 -11.37563,-13.95866 -22.95889,-13.95866 z m -436.12457,0.87487 v 56.87527 h 17.45892 v -56.87527 z m 27.37518,0 v 56.87527 h 14.1671 v -27.54204 c 0,-2.55556 -0.45833,-5.66674 -1.375,-9.33341 2.02777,4.61111 4.04065,8.52743 6.04065,11.74965 l 15.58404,25.1258 h 14.20787 v -56.87527 h -14.20787 v 16.83305 c 0,5.08333 0.44415,10.05531 1.33304,14.91642 -1.36111,-3.13889 -3.36103,-6.77734 -5.99986,-10.91623 l -13.25005,-20.83324 z m 116.87443,0 v 56.87527 h 17.45892 v -21.75068 h 5.49998 l 8.29191,21.75068 h 19.37458 l -10.29147,-24.79198 c 4.0555,-1.91667 6.74999,-4.12485 8.08333,-6.62479 1.33333,-2.52777 1.99956,-5.43056 1.99956,-8.70834 0,-5.02772 -1.81914,-9.06936 -5.45802,-12.12491 -3.6111,-3.08328 -8.69411,-4.62525 -15.24961,-4.62525 z m 58.87535,0 v 56.87527 h 42.79143 v -13.58339 h -25.66577 v -9.29195 h 20.74958 V 554.0574 h -20.74958 v -8.25018 h 25.66577 V 532.68199 Z M 651.15198,544.724 c 5.30549,0 7.95864,4.94358 7.95864,14.8324 0,6.83332 -0.65322,11.54224 -1.95878,14.12557 -1.27777,2.5555 -3.38868,3.83328 -6.33313,3.83328 -5.49993,0 -8.24996,-5.29203 -8.24996,-15.8753 0,-11.27771 2.86101,-16.91595 8.58323,-16.91595 z m -219.62489,0.0414 h 8.04138 c 4.47222,0 6.70834,1.81984 6.70834,5.45867 0,1.77777 -0.66624,3.12497 -1.99957,4.04164 -1.33333,0.91666 -3.09695,1.37447 -5.29139,1.37447 h -7.45876 z" /></g><path
       id="path2741"
       style="fill:#cbffff;fill-opacity:1;stroke:none;stroke-width:1.204;stroke-dasharray:none;stroke-opacity:1;paint-order:stroke fill markers"
       d="m 131.10414,97.086952 c -0.0896,0.0066 -0.43028,0.07681 -0.77308,0.160713 -0.6913,0.169209 -1.34613,0.405132 -1.96422,0.707967 -0.33293,0.16312 -0.97855,0.534455 -1.00562,0.57826 -0.007,0.01124 0.04,0.317894 0.10438,0.681611 0.1358,0.767287 0.47004,2.716777 0.92811,5.415687 l 0.32298,1.90273 0.0517,-0.35295 c 0.25474,-1.72857 0.72106,-3.02647 1.42007,-3.95273 0.0912,-0.12088 0.17943,-0.23829 0.19637,-0.26097 0.0179,-0.0239 0.11327,-0.60838 0.22686,-1.39319 0.20962,-1.448371 0.31849,-2.177928 0.44441,-2.976049 0.0435,-0.275984 0.0755,-0.505396 0.0708,-0.510045 -0.002,-0.0019 -0.01,-0.0019 -0.0227,-0.0011 z" /><path
       style="fill:#cbffff;fill-opacity:1;stroke:none;stroke-width:1.204;stroke-dasharray:none;stroke-opacity:1;paint-order:stroke fill markers"
       d="m 127.3612,98.533669 c -0.39028,0.179028 -0.66288,0.505468 -0.92344,0.831178 -0.0757,0.09461 -0.18074,0.147659 -0.26459,0.231511 -0.12562,0.125619 -0.25759,0.288329 -0.3638,0.429952 -0.0148,0.0197 -0.0156,0.0487 -0.0331,0.0661 -0.16902,0.16901 0.0461,-0.138677 -0.13229,0.0992 -0.0537,0.0715 -0.0745,0.15924 -0.1323,0.23151 -0.0389,0.0487 -0.1044,0.0765 -0.13229,0.13229 -0.01,0.0197 0.007,0.0452 0,0.0661 -0.0156,0.0469 -0.0803,0.0472 -0.0992,0.0662 -0.0156,0.0156 0.01,0.0464 0,0.0661 -0.0198,0.0397 -0.0794,0.0595 -0.0992,0.0992 -0.0374,0.0748 -0.049,0.0901 -0.0992,0.16536 -0.006,0.009 0.008,0.0253 0,0.0331 -0.008,0.008 -0.022,0 -0.0331,0 -0.011,0.011 -0.0244,0.0201 -0.0331,0.0331 -0.0321,0.0482 -0.0206,0.0689 -0.0662,0.0992 -0.0205,0.0137 -0.0525,0.0126 -0.0661,0.0331 -0.0122,0.0183 0.007,0.0452 0,0.0661 -0.0321,0.0961 -0.20899,0.12431 -0.26458,0.19844 -0.0209,0.0279 -0.0151,0.0693 -0.0331,0.0992 -0.002,0.003 -0.15812,0.19119 -0.16536,0.19844 -0.0174,0.0174 -0.0487,0.0156 -0.0662,0.0331 -0.0174,0.0174 -0.0156,0.0487 -0.0331,0.0661 -0.0174,0.0174 -0.0487,0.0156 -0.0662,0.0331 -0.0349,0.0349 -0.0366,0.0929 -0.0661,0.13229 -0.0331,0.0441 -0.10172,0.0533 -0.13229,0.0992 -0.0122,0.0183 0.0122,0.0478 0,0.0662 -0.0375,0.0562 -0.12812,0.0578 -0.16537,0.13229 -0.01,0.0197 0.0122,0.0478 0,0.0662 -0.027,0.0405 -0.0823,0.0153 -0.0992,0.0661 -0.007,0.0209 0.01,0.0464 0,0.0661 -0.011,0.022 -0.0551,0.011 -0.0661,0.0331 -0.0142,0.0284 -0.009,0.0511 -0.0331,0.0992 -0.0778,0.15558 -0.0368,0.91925 -0.0661,1.12448 -0.005,0.0345 -0.0281,0.0647 -0.0331,0.0992 -0.0388,0.27186 0,0.58402 0,0.8599 0,0.24186 -0.0222,0.51604 0,0.76067 0.011,0.0661 0.022,0.13229 0.0331,0.19844 0.022,0.0441 0.0573,0.0838 0.0661,0.13229 0.0138,0.0759 0,0.15434 0,0.23151 0.0331,0.14332 0.0635,0.28726 0.0992,0.42995 0.18958,0.75832 -0.003,0.086 0.19844,0.52917 0.0839,0.18451 0.072,0.29123 0.13229,0.49609 0.0266,0.0904 0.0726,0.17422 0.0992,0.26458 0.0574,0.19502 0.0711,0.40147 0.13229,0.59532 0.0358,0.11322 0.0917,0.21914 0.13229,0.33073 0.13396,0.36839 0.22054,0.7718 0.39688,1.12447 0.0356,0.0711 0.0914,0.13027 0.13229,0.19844 0.0331,0.0551 0.0739,0.10628 0.0992,0.16537 0.0569,0.13283 -0.005,0.12772 0.0992,0.23151 0.0509,0.0509 0.14752,0.0814 0.19844,0.13229 0.0174,0.0174 0.0119,0.0535 0.0331,0.0662 0.067,0.0402 0.28995,0.0954 0.3638,0.13229 0.0493,0.0247 0.083,0.0746 0.13229,0.0992 0.11042,0.0552 0.25049,0.0756 0.3638,0.13229 0.12628,0.0631 0.22818,0.1863 0.36381,0.23151 0.0523,0.0174 0.10899,0.0143 0.16536,0.0331 0.19129,0.0638 0.24115,-0.14974 0.3638,-0.23151 0.13595,-0.0906 0.0206,-0.0867 0.0661,-0.13229 0.0174,-0.0174 0.0525,-0.0126 0.0661,-0.0331 0.0122,-0.0183 -0.007,-0.0452 0,-0.0662 0.005,-0.0148 0.0261,-0.0191 0.0331,-0.0331 0.0203,-0.0407 0.0127,-0.0916 0.0331,-0.13229 0.0193,-0.0385 0.0469,-0.0607 0.0662,-0.0992 0.0175,-0.035 0.0183,-0.15411 0.0331,-0.19844 0.005,-0.0148 0.0281,-0.0183 0.0331,-0.0331 0.007,-0.0209 -0.01,-0.0464 0,-0.0662 0.011,-0.022 0.0584,-0.01 0.0662,-0.0331 0.0104,-0.0314 -0.005,-0.0666 0,-0.0992 0.0607,-0.36448 -0.002,0.0375 0.0661,-0.13229 0.0327,-0.0817 0.0775,-0.2107 0.0992,-0.29766 0.0308,-0.12323 0.005,-0.27266 0.0331,-0.39687 0.0274,-0.12351 0.1071,-0.23787 0.13229,-0.3638 0.0252,-0.12601 0.0504,-0.27475 0.0992,-0.39688 0.10985,-0.27465 -0.069,0.26093 0.0331,-0.19844 0.11886,-0.53487 0.0243,0.19331 0.0992,-0.33073 0.006,-0.0436 -0.0107,-0.0895 0,-0.13229 0.0303,-0.12106 0.10205,-0.24287 0.13229,-0.3638 0.024,-0.096 0.0416,-0.19933 0.0661,-0.29766 0.01,-0.0389 -0.0176,-0.0972 0,-0.13229 0.0745,-0.14891 0.072,-0.30929 0.1323,-0.42994 0.18912,-0.37825 -0.0209,0.14979 0.0661,-0.19844 0.008,-0.0303 0.0586,-0.0359 0.0662,-0.0662 0.0107,-0.0428 -0.0312,-0.10111 0,-0.13229 0.008,-0.008 0.0281,0.01 0.0331,0 0.0331,-0.0661 -0.0165,-0.0496 0,-0.0992 0.008,-0.0234 0.0271,-0.0422 0.0331,-0.0661 0.0179,-0.0714 -0.0121,-0.15916 0,-0.23151 0.0313,-0.18795 0.0456,-0.006 0.0662,-0.23152 0.09,-0.99008 0.044,-1.98278 0.0992,-2.97656 0.0319,-0.57441 0.0331,-1.14455 0.0331,-1.71979 0,-0.18968 0.0503,-0.56089 -0.0331,-0.7276 -0.014,-0.0279 -0.0522,-0.0383 -0.0662,-0.0661 -0.0882,-0.176392 0.14642,0.074 -0.0331,-0.165367 -0.0148,-0.01971 -0.0469,-0.01767 -0.0662,-0.03307 -0.073,-0.05844 -0.12657,-0.138552 -0.19843,-0.198438 -0.10028,-0.08356 -0.22065,-0.115996 -0.29766,-0.23151 -0.0406,-0.06084 -0.0815,-0.147685 -0.13229,-0.198438 -0.0281,-0.02811 -0.0711,-0.03804 -0.0992,-0.06615 -0.0299,-0.02994 -0.29411,-0.325403 -0.29766,-0.33073 -0.0193,-0.02901 -0.0175,-0.06804 -0.0331,-0.09922 -0.0366,-0.07319 -0.22255,-0.223727 -0.26718,-0.268939 z"
       id="path5463" /><path
       style="fill:#cbffff;fill-opacity:1;stroke:none;stroke-width:1.204;stroke-dasharray:none;stroke-opacity:1;paint-order:stroke fill markers"
       d="m 130.10885,116.46354 c -0.18314,-0.39812 -0.40862,-0.77795 -0.62839,-1.15755 -0.0276,-0.0477 -0.0719,-0.0844 -0.0992,-0.13229 -0.0346,-0.0605 -0.035,-0.13607 -0.0661,-0.19844 -0.0603,-0.12068 -0.16485,-0.26254 -0.19844,-0.39687 -0.005,-0.0214 0.007,-0.0452 0,-0.0661 -0.0258,-0.0775 -0.0987,-0.18612 -0.13229,-0.26458 -0.0961,-0.22425 -0.15653,-0.4696 -0.23151,-0.69454 -0.0105,-0.0314 0.008,-0.0671 0,-0.0992 -0.0195,-0.078 -0.0797,-0.1535 -0.0992,-0.23151 -0.0212,-0.0846 -0.0187,-0.17851 -0.0331,-0.26458 -0.0187,-0.11189 -0.0877,-0.25982 -0.13229,-0.3638 -0.0253,-0.0591 -0.0836,-0.103 -0.0992,-0.16537 -0.008,-0.0321 0.008,-0.0671 0,-0.0992 -0.004,-0.0151 -0.0273,-0.0186 -0.0331,-0.0331 -0.0282,-0.0705 -0.0864,-0.2205 -0.0992,-0.29765 -0.007,-0.0435 0.0107,-0.0895 0,-0.13229 -0.0234,-0.0936 -0.10356,-0.21145 -0.1323,-0.29766 -0.0363,-0.10905 -0.0497,-0.24869 -0.0661,-0.3638 0.0589,-0.10351 -0.0504,-0.15281 -0.0662,-0.23151 -0.013,-0.0649 0.013,-0.13358 0,-0.19844 -0.005,-0.0242 -0.0282,-0.042 -0.0331,-0.0661 -0.0211,-0.10539 0.0152,-0.22438 0,-0.33073 -0.005,-0.0345 -0.022,-0.0661 -0.0331,-0.0992 0,-0.0551 0.008,-0.1108 0,-0.16537 -0.004,-0.0244 -0.0282,-0.042 -0.0331,-0.0662 -0.0246,-0.12313 -0.0358,-0.24246 -0.0661,-0.3638 -0.013,-0.0519 0.013,-0.11348 0,-0.16536 -0.0272,-0.1087 -0.0435,-0.21765 -0.0662,-0.33073 -0.009,-0.0432 0.0197,-0.0928 0,-0.13229 -0.005,-0.01 -0.0281,0.01 -0.0331,0 -0.0357,-0.0715 0,-0.48822 0,-0.59532 0,-0.011 0.003,0.0226 0,0.0331 -0.0188,0.0563 -0.0396,0.11227 -0.0661,0.16537 -0.10693,0.21387 -0.2478,0.44205 -0.39687,0.62838 -0.039,0.0487 -0.0977,0.0804 -0.13229,0.1323 -0.15308,0.0777 -0.0993,0.24814 -0.16537,0.3638 -0.0274,0.0479 -0.0725,0.0841 -0.0992,0.13229 -0.0863,0.15527 -0.0493,0.14781 -0.0992,0.29766 -0.0945,0.28348 -0.2175,0.56175 -0.26458,0.85989 -0.019,0.12028 -0.0153,0.24333 -0.0331,0.3638 -0.0374,0.25463 -0.11256,0.50407 -0.13229,0.76068 -0.0245,0.31876 0,0.63941 0,0.95911 0,1.20934 -0.028,0.58727 0.0661,1.65365 0.0262,0.29741 0.016,0.421 0.0992,0.69453 0.11141,0.36605 0.3937,1.18861 0.76068,1.42214 0.0588,0.0374 0.13496,0.0373 0.19844,0.0662 0.0585,0.0266 0.10568,0.0753 0.16536,0.0992 0.0522,0.0209 0.11204,0.0153 0.16537,0.0331 0.35037,0.11679 -0.18417,0.0588 0.46302,0.0992 0.0878,0.005 0.78849,0.0392 0.89296,0 0.0974,-0.0365 0.16899,-0.1244 0.26459,-0.16537 0.0787,-0.0337 0.23684,-0.0536 0.29765,-0.0992 0.0672,-0.0504 0.1768,-0.17803 0.19844,-0.26458 0.0145,-0.0579 -0.0157,-0.19879 0.0661,-0.23151 0.0409,-0.0164 0.0882,0 0.13229,0 z"
       id="path5465" /><path
       style="fill:#cbffff;fill-opacity:1;stroke:none;stroke-width:1.204;stroke-dasharray:none;stroke-opacity:1;paint-order:stroke fill markers"
       d="m 128.74244,106.35731 c -0.0509,0.0644 -0.0686,0.14692 -0.0952,0.22662 -0.007,0.021 0.007,0.0491 0,0.0702 -0.0116,0.0349 -0.0384,0.0753 -0.0468,0.11693 -0.0135,0.0673 0.004,0.0849 -0.0234,0.14032 -0.0145,0.029 0.006,0.0851 0,0.11693 -0.008,0.039 -0.0108,0.0792 -0.0234,0.11693 -0.003,0.0104 -0.0199,0.0129 -0.0234,0.0234 -0.0188,0.0564 -0.0136,0.12838 -0.0234,0.18709 -0.0174,0.10458 -0.0451,0.20362 -0.0702,0.30401 -0.0116,0.0466 0,0.11488 0,0.16371 0,0.0718 -0.0111,0.11367 -0.0234,0.18709 -0.0101,0.0605 0.012,0.12703 0,0.18709 -0.0249,0.12444 -0.005,0.2175 -0.0234,0.3274 -0.0102,0.061 -0.0234,0.10013 -0.0234,0.1637 0,0.10301 0.0202,0.22639 0,0.32741 -0.003,0.0171 -0.0192,0.0299 -0.0234,0.0468 -0.0416,0.16618 0.0341,0.39095 0,0.56127 -0.003,0.0171 -0.02,0.0297 -0.0234,0.0468 -0.0278,0.13915 0,0.34312 0,0.49111 0,0.19723 -0.001,0.38906 0.0234,0.58465 0.018,0.14411 -0.0284,0.30223 0,0.44433 0.003,0.0171 0.0209,0.0295 0.0234,0.0468 0.0138,0.0967 0,0.20594 0,0.30402 0,0.0312 0,0.0624 0,0.0935 0.008,0.0156 0.0205,0.0296 0.0234,0.0468 0.0126,0.0759 -0.0127,0.15802 0,0.23386 0.0208,0.12472 0.0405,0.25574 0.0701,0.37418 0.0146,0.0585 -0.01,0.12747 0,0.18709 0.005,0.0317 0.0171,0.062 0.0234,0.0935 0.0235,0.1174 -0.0292,0.25755 0,0.37417 0.003,0.0107 0.0184,0.0135 0.0234,0.0234 0.0105,0.0209 -0.006,0.0475 0,0.0702 0.004,0.0169 0.02,0.0297 0.0234,0.0468 0.0117,0.0585 0.016,0.38898 0,0.42095 -0.003,0.007 -0.0157,0.001 -0.0234,0 -0.15844,-0.0264 -0.21462,-0.0977 -0.3274,-0.21047 -0.0858,-0.0857 -0.18233,-0.16189 -0.25725,-0.25725 -0.18914,-0.24072 -0.26466,-0.47795 -0.39756,-0.77174 -0.0633,-0.1399 -0.13255,-0.27741 -0.18709,-0.42095 -0.32321,-0.85055 -0.25061,-0.72901 -0.44434,-1.6838 -0.27651,-1.36277 -0.0735,-0.20715 -0.1637,-0.95883 -0.0244,-0.2036 -0.0789,-0.40349 -0.0936,-0.60803 -0.008,-0.11664 0,-0.23387 0,-0.3508 0,-0.12041 0.004,-0.25895 0.0468,-0.37417 0.0542,-0.14446 0.21798,-0.35831 0.3274,-0.46772 0.0706,-0.0706 0.1566,-0.12388 0.23386,-0.18709 0.27453,-0.22461 0.54725,-0.45214 0.81852,-0.6782 0.0299,-0.025 0.0611,-0.0485 0.0935,-0.0702 0.0413,-0.0276 0.12275,0.0176 0.1637,-0.0234 0.006,-0.006 -0.005,-0.0179 0,-0.0234 0.0123,-0.0123 0.0345,-0.0111 0.0468,-0.0234 0.0452,-0.0452 0.051,-0.12116 0.0936,-0.1637 0.0123,-0.0123 0.0344,-0.0111 0.0468,-0.0234 0.011,-0.011 -0.0139,-0.0398 0,-0.0468 0.0141,-0.007 0.14958,-0.007 0.1637,0 0.0156,0.008 0.0111,0.0344 0.0234,0.0468 0.0156,0.0156 0.0424,0.0252 0.0468,0.0468 0.007,0.0329 0.001,0.0672 0.002,0.10078 z"
       id="path5467" /><path
       id="path5469"
       style="fill:#cbffff;fill-opacity:1;stroke:none;stroke-width:1.204;stroke-dasharray:none;stroke-opacity:1;paint-order:stroke fill markers"
       d="m 133.088,96.837354 c -0.15577,9.06e-4 -0.30683,0.01751 -0.43202,0.0801 -0.0617,0.03087 -0.16981,-0.03087 -0.23151,0 -0.01,0.0049 0.008,0.02527 0,0.03307 -0.0312,0.0312 -0.19191,-0.0132 -0.23151,0 -0.0148,0.0049 -0.0192,0.02607 -0.0331,0.03307 -0.032,0.016 -0.0628,-0.0017 -0.13229,0.03307 -0.0503,0.02516 -0.62353,0.01775 -0.69453,0 -0.066,-0.01648 -0.0946,-0.03307 -0.16537,-0.03307 -0.0136,0 -0.0902,-0.0088 -0.0992,0 -0.008,0.0078 0.008,0.02527 0,0.03307 -0.007,0.0074 -0.17124,0.03893 -0.19844,0.06615 -0.008,0.0078 0.01,0.02817 0,0.03307 -0.0198,0.0099 -0.0478,-0.01222 -0.0661,0 -0.0348,0.02322 -0.0487,0.08178 -0.0662,0.09922 -0.0155,0.01558 -0.0452,-0.007 -0.0661,0 -0.0468,0.01559 -0.0855,0.05057 -0.13229,0.06615 -0.0375,0.01249 -0.0973,-0.01752 -0.1323,0 -0.076,0.038 -0.23155,0.04964 -0.29765,0.09922 -0.13204,0.09903 -0.29718,0.22421 -0.39688,0.363802 -0.10479,0.146707 -0.16878,0.312471 -0.26458,0.463021 -0.0379,0.05956 -0.10069,0.102225 -0.13229,0.165365 -0.0407,0.08131 -0.0302,0.181023 -0.0662,0.264583 -0.0859,0.200459 -0.17791,0.381093 -0.23151,0.595313 -0.0431,0.172705 -0.0412,0.354858 -0.0661,0.529166 -0.0212,0.148455 -0.0806,0.281126 -0.0992,0.429946 -0.0272,0.21754 -0.0279,0.80903 0.0331,0.99219 0.0265,0.0797 0.0726,0.15186 0.0992,0.23151 0.0104,0.0313 0.0449,0.25527 0.0661,0.29766 0.0834,0.16677 0.71165,0.18113 0.79375,0.19843 0.23153,0.0487 0.14572,0.0583 0.33073,0.1323 0.0341,0.0136 0.19361,-0.11336 0.23151,-0.1323 0.0197,-0.01 0.0506,0.0156 0.0662,0 0.0585,-0.0585 0.0585,-0.0954 0.13229,-0.13229 0.0197,-0.01 0.0562,0.0197 0.0662,0 0.01,-0.0197 -0.0156,-0.0506 0,-0.0661 0.007,-0.007 0.11609,-0.0168 0.13229,-0.0331 0.008,-0.008 -0.008,-0.0253 0,-0.0331 0.0628,-0.0628 0.21596,-0.12451 0.29766,-0.16536 0.0397,-0.0199 0.0595,-0.0794 0.0992,-0.0992 0.0312,-0.0156 0.0825,0.0398 0.0992,-0.0331 0.0205,-0.0137 0.0126,-0.0525 0.0331,-0.0662 0.029,-0.0193 0.0661,-0.022 0.0992,-0.0331 0.0111,0 0.0231,0.005 0.0331,0 0.0493,-0.0247 0.0819,-0.074 0.13229,-0.0992 0.0296,-0.0148 0.0731,0.0296 0.0992,0 0.0221,-0.011 0.0111,-0.0551 0.0331,-0.0662 0.0563,-0.0282 0.0671,0.0321 0.13229,-0.0331 0.008,-0.008 -0.009,-0.027 0,-0.0331 0.0864,-0.0576 0.10307,-0.002 0.16537,-0.0331 0.11041,-0.0552 0.2268,-0.11341 0.33073,-0.16537 0.0199,-0.01 0.0839,0.0153 0.0992,0 0.0175,-0.0174 -0.0324,-0.0695 0.0331,-0.0661 0.0677,-0.0451 0.10806,-0.004 0.16536,-0.0331 0.10397,-0.052 0.22797,-0.11398 0.33073,-0.16536 0.0833,-0.0416 0.54471,0 0.66146,0 0.15289,0 0.36727,-0.0313 0.49609,0.0331 0.0197,0.01 0.0505,-0.0156 0.0661,0 0.008,0.008 -0.008,0.0253 0,0.0331 0.0275,0.0275 0.19031,-0.006 0.23151,0 0.079,0.0113 0.40242,0.0359 0.46302,0.0662 0.01,0.005 -0.0104,0.0296 0,0.0331 0.0418,0.0139 0.0929,-0.0197 0.13229,0 0.068,0.034 0.0818,0.0989 0.16537,0.13229 0.0204,0.008 0.0473,-0.0122 0.0656,0 0.0205,0.0137 0.0131,0.0525 0.0336,0.0661 0.0183,0.0122 0.0473,-0.0122 0.0656,0 0.0205,0.0137 0.0157,0.0487 0.0331,0.0662 0.0681,0.0684 -0.003,-0.10456 0.0661,0.0331 0.005,0.01 -0.01,0.0282 0,0.0331 0.0197,0.01 0.0481,-0.0122 0.0661,0 0.0205,0.0137 0.0157,0.0487 0.0331,0.0662 0.008,0.008 0.0251,-0.008 0.0331,0 0.008,0.008 -0.009,0.027 0,0.0331 0.029,0.0193 0.0713,0.0121 0.0992,0.0331 0.0197,0.0148 0.0157,0.0487 0.0331,0.0661 0.0192,0.0192 0.11309,0.047 0.13229,0.0661 0.0156,0.0156 -0.0197,0.0563 0,0.0662 0.0197,0.01 0.0464,-0.01 0.0661,0 0.0209,0.0105 0.0271,0.11538 0.0331,0.13229 0.0344,0.10323 0.022,-0.011 0.0661,0.0331 0.008,0.008 -0.005,0.0232 0,0.0331 0.033,0.066 0.12737,0.10197 0.16537,0.16537 0.018,0.0299 0.0122,0.0713 0.0331,0.0992 0.0351,0.0467 0.1304,0.0855 0.16536,0.13229 0.0209,0.0279 0.0138,0.0702 0.0331,0.0992 0.006,0.009 0.0231,-0.005 0.0331,0 0.0691,0.0344 0.0474,0.076 0.0662,0.13229 0.0179,0.0538 0.11909,0.0397 0.13229,0.0662 0.007,0.0139 0.0123,0.12189 0.0331,0.13229 0.0197,0.01 0.0464,-0.01 0.0661,0 0.0197,0.01 -0.0156,0.0506 0,0.0661 0.008,0.008 0.0251,-0.008 0.0331,0 0.008,0.008 -0.006,0.0239 0,0.0331 0.0451,0.0676 0.0962,0.12624 0.13229,0.19844 0.0203,0.0406 8.8e-4,0.10015 0.0331,0.13229 0.0174,0.0174 0.0445,0.022 0.0661,0.0331 0,0.011 -0.005,0.0232 0,0.0331 0.0241,0.0482 0.053,0.0529 0.0662,0.0662 0.0296,0.0296 -0.0104,0.10681 0.0661,0.13229 0.0786,0.0262 0.0601,-0.0392 0.13229,0.0331 0.008,0.008 -0.01,0.0282 0,0.0331 0.0296,0.0148 0.0758,0.0234 0.0992,0 0.0606,-0.0606 -0.0606,-0.30317 0,-0.3638 0.0479,-0.0479 0.0932,0.12049 0.0992,0.13229 0.0209,0.0419 0.0316,0.0389 0.0367,0.0274 -0.002,0.0228 -0.004,0.0628 -0.004,0.13798 0.0119,0.0478 0.0526,0.0849 0.0661,0.13229 0.0769,0.26934 0.0661,0.2749 0.0661,0.49609 h 5.2e-4 c 0.022,0.0551 0.0395,0.11227 0.0661,0.16537 0.024,0.048 0.10389,0.0378 0.13229,0.0661 0.008,0.008 -0.008,0.0253 0,0.0331 0.008,0.008 0.0231,-0.005 0.0331,0 0.0794,0.0397 0.11903,0.15875 0.19843,0.19844 0.0312,0.0156 0.0702,0.0137 0.0992,0.0331 0.16991,0.11327 0.27988,0.29655 0.42995,0.42994 0.47156,0.41917 -0.23135,-0.33056 0.26458,0.16537 0.0282,0.0281 0.0352,0.0744 0.0662,0.0992 0.0272,0.0218 0.068,0.0175 0.0992,0.0331 0.0356,0.0178 0.11586,0.0868 0.16536,0.0992 0.19304,0.0483 0.75244,-0.0158 0.95912,-0.0331 0.16093,-0.0134 0.6579,-0.1216 0.7276,-0.33073 0.058,-0.17381 -0.0476,-0.49535 -0.0661,-0.66146 -0.006,-0.0548 0.0108,-0.11131 0,-0.16536 -0.0116,-0.0582 -0.0505,-0.10809 -0.0661,-0.16537 -0.0706,-0.25885 -0.10344,-0.54053 -0.19844,-0.79375 -0.0173,-0.0462 -0.0505,-0.0855 -0.0661,-0.13229 -0.0178,-0.0533 -0.0153,-0.11203 -0.0331,-0.16536 -0.19468,-0.58417 -0.1053,-0.24734 -0.26458,-0.66146 -0.0501,-0.13016 -0.0746,-0.26993 -0.13229,-0.39688 -0.15071,-0.33156 -0.3661,-0.63298 -0.52917,-0.95911 -0.0156,-0.0312 -0.0158,-0.069 -0.0331,-0.0992 -0.0744,-0.13019 -0.18138,-0.23904 -0.26458,-0.3638 -0.16468,-0.247099 -0.13331,-0.219904 -0.26459,-0.429952 -0.0374,-0.05986 -0.10069,-0.102224 -0.13229,-0.165364 -0.0203,-0.04065 -0.005,-0.09641 -0.0331,-0.132292 -0.0529,-0.06796 -0.13514,-0.106964 -0.19844,-0.165364 -0.271,-0.250148 -0.50339,-0.567922 -0.79375,-0.79375 -0.0941,-0.07321 -0.21336,-0.114118 -0.29766,-0.198438 -0.0302,-0.03018 -0.18943,-0.229133 -0.19843,-0.264583 -0.005,-0.0214 0.007,-0.04522 0,-0.06615 -0.0126,-0.038 -0.0789,-0.04588 -0.0992,-0.06615 -0.008,-0.0078 0.005,-0.02317 0,-0.03307 -0.0139,-0.02789 -0.0474,-0.0412 -0.0661,-0.06615 -0.0331,-0.0441 -0.0745,-0.08299 -0.0992,-0.132291 -0.005,-0.0099 0.008,-0.02527 0,-0.03307 -0.0156,-0.01558 -0.0459,0.0099 -0.0656,0 -0.0507,-0.02533 -0.0264,-0.05894 -0.0667,-0.09922 -0.0441,-0.0441 -0.18741,0.01103 -0.23151,-0.03307 -0.0166,-0.01654 -0.0166,-0.04961 -0.0331,-0.06615 -0.008,-0.0078 -0.0251,0.0078 -0.0331,0 -0.008,-0.0078 0.01,-0.02817 0,-0.03307 -0.0197,-0.0099 -0.0465,0.0099 -0.0662,0 -0.01,-0.0049 0.008,-0.02527 0,-0.03307 -0.0131,-0.01311 -0.17584,-0.07663 -0.19844,-0.09922 -0.008,-0.0078 0.01,-0.02817 0,-0.03307 -0.0672,-0.0336 -0.2956,9.91e-4 -0.3638,-0.03307 -0.13767,-0.06885 0.0353,0.0023 -0.0331,-0.06615 -0.0156,-0.01558 -0.0465,0.0099 -0.0662,0 -0.1513,-0.07565 0.14028,0.0137 -0.0992,-0.06615 -0.11251,-0.0375 -0.2916,0.05263 -0.39687,0 -0.014,-0.007 -0.0183,-0.02817 -0.0331,-0.03307 -0.12938,-0.04313 -0.29711,0.03321 -0.42994,0 -0.0239,-0.006 -0.0417,-0.02707 -0.0656,-0.03307 -0.0735,-0.01839 -0.0832,0.02756 -0.16588,0 -0.0104,-0.0035 0.008,-0.02527 0,-0.03307 -0.0418,-0.04176 -0.21059,0.02699 -0.26459,0 -0.24213,-0.121066 -0.61166,-0.06614 -0.89297,-0.06614 -0.14367,0 -0.30412,-0.0148 -0.45992,-0.01395 z" /><path
       style="fill:#cbffff;fill-opacity:1;stroke:none;stroke-width:1.204;stroke-dasharray:none;stroke-opacity:1;paint-order:stroke fill markers"
       d="m 137.70735,102.58119 c -0.0413,-0.008 -0.0823,-0.0306 -0.12402,-0.0248 -0.0543,0.008 -0.11369,0.0548 -0.1571,0.091 -0.0643,0.0536 -0.14793,0.13608 -0.16536,0.22324 -0.0127,0.0634 0.008,0.13706 0.0165,0.19844 0.003,0.0243 -0.003,0.0501 0,0.0744 0.003,0.0225 0.008,0.0453 0.0165,0.0662 0.004,0.009 0.0128,0.0156 0.0165,0.0248 0.006,0.016 0.007,0.0397 0.0165,0.0579 0.0394,0.0788 0.0768,0.16771 0.14056,0.23151 0.0152,0.0152 0.0338,0.0267 0.0496,0.0413 0.0229,0.0212 0.0414,0.0471 0.0661,0.0661 0.0424,0.0326 0.17437,0.0367 0.2067,0.0331 0.0665,-0.007 0.10523,-0.0308 0.14883,-0.0744 0.1183,-0.1183 0.10232,-0.29129 0.0992,-0.44649 -0.001,-0.0499 -0.0109,-0.0992 -0.0165,-0.14882 -0.0117,-0.1027 -0.0246,-0.19446 -0.0661,-0.28939 -0.022,-0.0502 -0.12633,-0.20197 -0.19017,-0.22324 -0.0105,-0.003 -0.022,0 -0.0331,0 -0.0872,0 -0.13294,0.0727 -0.17364,0.14056 -0.002,0.003 -0.008,0.004 -0.008,0.008 0,0.0165 0.039,0.0165 0.0496,0.0165"
       id="path5471" /></g></svg>
